<svg id="Ki8Kph.tif_1_" xmlns="http://www.w3.org/2000/svg" width="7.809" height="16.852" viewBox="0 0 7.809 16.852">
  <g id="Group_2" data-name="Group 2" transform="translate(0 0)">
    <path id="Path_10" data-name="Path 10" d="M7.773-.007V2.885H5.929a.7.7,0,0,0-.8.723c-.036.615,0,1.193,0,1.844H7.809c-.036.362-.072.687-.108,1.012-.072.578-.145,1.157-.181,1.772,0,.181-.072.217-.217.217H5.17v8.388H1.663V8.453H0V5.488H1.663V5.235A20.819,20.819,0,0,1,1.7,3.1,3.041,3.041,0,0,1,4.592.1a15.686,15.686,0,0,1,2.6-.108Z" transform="translate(0 0.011)" fill="#fff"/>
  </g>
</svg>
