<svg xmlns="http://www.w3.org/2000/svg" width="48" height="48" viewBox="0 0 48 48">
  <g id="Group_571" data-name="Group 571" transform="translate(-197 -400)">
    <circle id="Ellipse_115" data-name="Ellipse 115" cx="24" cy="24" r="24" transform="translate(197 400)" fill="#1b76f2"/>
    <g id="n64xuF" transform="translate(216 413)">
      <g id="Group_107" data-name="Group 107">
        <path id="Path_85" data-name="Path 85" d="M369.222,242l1.451.184v3.53h-1.116c-.375,0-.751-.013-1.126,0-1.251.057-1.76.606-1.759,1.88,0,.862,0,1.723,0,2.638h3.863l-.5,3.963h-3.359v10.288h-4.017q-.009-4.817-.017-9.634c0-.2,0-.39,0-.636h-3.383v-3.974h3.383c0-.7-.022-1.341.005-1.984a15.368,15.368,0,0,1,.189-2.624,4.318,4.318,0,0,1,3.909-3.554,1.189,1.189,0,0,0,.225-.08Z" transform="translate(-359.257 -242)" fill="#fff"/>
      </g>
    </g>
  </g>
</svg>
