<svg id="folder" xmlns="http://www.w3.org/2000/svg" width="24.071" height="20.563" viewBox="0 0 24.071 20.563">
  <path id="folder-2" data-name="folder" d="M4.012,1.5A1.983,1.983,0,0,0,2.006,3.458v.979q0,.083.007.165A2.945,2.945,0,0,0,0,7.375v11.75a2.974,2.974,0,0,0,3.009,2.938H21.063a2.974,2.974,0,0,0,3.009-2.938V7.375a2.974,2.974,0,0,0-3.009-2.938H11.909A4,4,0,0,0,8.024,1.5Zm5.75,2.938a2.014,2.014,0,0,0-1.738-.979H4.012v.979ZM3.009,6.4a.991.991,0,0,0-1,.979v11.75a.991.991,0,0,0,1,.979H21.063a.991.991,0,0,0,1-.979V7.375a.991.991,0,0,0-1-.979Z" transform="translate(0 -1.5)" fill="#6c60ff" fill-rule="evenodd"/>
</svg>
