<svg xmlns="http://www.w3.org/2000/svg" width="161.406" height="41.169" viewBox="0 0 161.406 41.169">
  <g id="Logo" transform="translate(0)">
    <path id="Path_93" data-name="Path 93" d="M215.71,308.894a8.416,8.416,0,0,1-3.239,7.184q-3.24,2.428-9.3,2.43a40.332,40.332,0,0,1-5.72-.353,24.3,24.3,0,0,1-4.963-1.294v-8.175a30.788,30.788,0,0,0,5.211,1.724,21.962,21.962,0,0,0,5.055.678q3.317,0,3.318-1.515a1.714,1.714,0,0,0-.928-1.4,42.342,42.342,0,0,0-5.394-2.39,13.433,13.433,0,0,1-5.7-3.8,8.658,8.658,0,0,1-1.62-5.394,7.471,7.471,0,0,1,3.188-6.426q3.186-2.3,9.012-2.3a22.716,22.716,0,0,1,5.5.64,32.712,32.712,0,0,1,5.342,1.868l-2.769,6.582a31.228,31.228,0,0,0-4.31-1.553,14.336,14.336,0,0,0-3.71-.64q-2.508,0-2.508,1.228a1.528,1.528,0,0,0,.875,1.293,46.858,46.858,0,0,0,5.055,2.181,19.425,19.425,0,0,1,4.637,2.508,7.51,7.51,0,0,1,2.247,2.887A10.143,10.143,0,0,1,215.71,308.894Z" transform="translate(-192.435 -277.339)" fill="#6c60ff"/>
    <path id="Path_94" data-name="Path 94" d="M239.861,308.748a15.212,15.212,0,0,0,4.937-1.018v7.445a20.084,20.084,0,0,1-3.931,1.267,22.275,22.275,0,0,1-4.376.379q-5.147,0-7.419-2.521t-2.273-7.746v-12.2h-3.579V290.2l4.546-3.213,2.638-6.218h6.688V286.7h7.262v7.653h-7.262v11.521Q237.092,308.749,239.861,308.748Z" transform="translate(-199.756 -275.652)" fill="#6c60ff"/>
    <path id="Path_95" data-name="Path 95" d="M273.633,317.985l-1.96-3.918h-.209a11.629,11.629,0,0,1-4.206,3.5,13.9,13.9,0,0,1-5.537.941A8.686,8.686,0,0,1,255.138,316a9.782,9.782,0,0,1-2.4-7.053q0-4.726,3.292-7.039t9.534-2.6l4.937-.157v-.417q0-3.657-3.605-3.658a21.559,21.559,0,0,0-8.228,2.194l-2.952-6.739q5.172-2.664,13.061-2.665,5.695,0,8.816,2.821a10.092,10.092,0,0,1,3.121,7.89v19.409Zm-7.576-6.688a4.607,4.607,0,0,0,3.174-1.175,3.9,3.9,0,0,0,1.319-3.056v-2.3l-2.351.105q-5.042.182-5.041,3.709Q263.158,311.3,266.058,311.3Z" transform="translate(-206.774 -277.339)" fill="#6c60ff"/>
    <path id="Path_96" data-name="Path 96" d="M315.132,308.894a8.414,8.414,0,0,1-3.239,7.184q-3.24,2.428-9.3,2.43a40.324,40.324,0,0,1-5.72-.353,24.3,24.3,0,0,1-4.963-1.294v-8.175a30.787,30.787,0,0,0,5.211,1.724,21.955,21.955,0,0,0,5.054.678q3.318,0,3.318-1.515a1.713,1.713,0,0,0-.927-1.4,42.456,42.456,0,0,0-5.394-2.39,13.439,13.439,0,0,1-5.7-3.8,8.654,8.654,0,0,1-1.62-5.394,7.473,7.473,0,0,1,3.187-6.426q3.188-2.3,9.012-2.3a22.706,22.706,0,0,1,5.5.64,32.742,32.742,0,0,1,5.343,1.868l-2.77,6.582a31.193,31.193,0,0,0-4.31-1.553,14.33,14.33,0,0,0-3.709-.64q-2.508,0-2.508,1.228a1.528,1.528,0,0,0,.876,1.293,46.638,46.638,0,0,0,5.055,2.181,19.447,19.447,0,0,1,4.636,2.508,7.51,7.51,0,0,1,2.247,2.887A10.156,10.156,0,0,1,315.132,308.894Z" transform="translate(-216.077 -277.339)" fill="#6c60ff"/>
    <path id="Path_97" data-name="Path 97" d="M342.305,314.7V298.557q0-5.954-3.526-5.955a3.954,3.954,0,0,0-3.7,2.1q-1.19,2.1-1.19,6.988V314.7H323.68V274.055h10.214v5.773q0,3.918-.417,8.934h.469a8.4,8.4,0,0,1,3.475-3.239,10.924,10.924,0,0,1,4.676-.941q4.963,0,7.719,2.861t2.755,8.007V314.7Z" transform="translate(-223.645 -274.055)" fill="#6c60ff"/>
    <path id="Path_98" data-name="Path 98" d="M379.267,308.748a15.2,15.2,0,0,0,4.937-1.018v7.445a20.057,20.057,0,0,1-3.931,1.267,22.256,22.256,0,0,1-4.375.379q-5.146,0-7.419-2.521t-2.272-7.746v-12.2h-3.579V290.2l4.546-3.213,2.638-6.218H376.5V286.7h7.262v7.653H376.5v11.521Q376.5,308.749,379.267,308.748Z" transform="translate(-232.906 -275.652)" fill="#6c60ff"/>
    <path id="Path_99" data-name="Path 99" d="M401.9,323.56a1.98,1.98,0,0,1-1.7,2.173h-3.966a1.981,1.981,0,0,1-1.7-2.173v-3.14a1.982,1.982,0,0,1,1.7-2.173H400.2a1.98,1.98,0,0,1,1.7,2.173Z" transform="translate(-240.494 -284.564)" fill="#6c60ff"/>
  </g>
</svg>
