<svg xmlns="http://www.w3.org/2000/svg" width="21.454" height="23.068" viewBox="0 0 21.454 23.068">
  <g id="today" transform="translate(0 0)">
    <rect id="Rectangle_4" data-name="Rectangle 4" width="11.919" height="13.111" rx="1" transform="translate(4.768 4.768)" fill="none" stroke="#6c60ff" stroke-width="2"/>
    <path id="Path_1322" data-name="Path 1322" d="M20.878,3.1H6.576A1.127,1.127,0,0,0,5.384,4.146V20.923a1.127,1.127,0,0,0,1.192,1.049h14.3a1.127,1.127,0,0,0,1.192-1.049V4.146A1.127,1.127,0,0,0,20.878,3.1ZM6.576,1A3.381,3.381,0,0,0,3,4.146V20.923a3.381,3.381,0,0,0,3.576,3.146h14.3a3.381,3.381,0,0,0,3.576-3.146V4.146A3.381,3.381,0,0,0,20.878,1Z" transform="translate(-3 -1)" fill="#6c60ff" fill-rule="evenodd"/>
  </g>
</svg>
